<mxfile host="app.diagrams.net" modified="2023-07-13T05:31:00.916Z" agent="Mozilla/5.0 (Macintosh; Intel Mac OS X 10_15_7) AppleWebKit/537.36 (KHTML, like Gecko) Chrome/114.0.0.0 Safari/537.36" version="21.5.1" etag="iiTq_8o7yNdWoPOrj679" type="github">
  <diagram name="第 1 页" id="A2_jOEm_GPVVvmtgA6Gb">
    <mxGraphModel>
      <root>
        <mxCell id="0" />
        <mxCell id="1" parent="0" />
      </root>
    </mxGraphModel>
  </diagram>
</mxfile>
